<mxfile host="app.diagrams.net" modified="2020-04-30T17:29:02.836Z" agent="5.0 (Windows NT 10.0; Win64; x64) AppleWebKit/537.36 (KHTML, like Gecko) Chrome/81.0.4044.129 Safari/537.36" etag="gV5YRLqyWOKguBAZ9ofO" version="13.0.4" type="github">
  <diagram id="dDFrnt2yYi9BdwWdHCUU" name="Page-1">
    <mxGraphModel dx="794" dy="490" grid="1" gridSize="10" guides="1" tooltips="1" connect="1" arrows="1" fold="1" page="1" pageScale="1" pageWidth="850" pageHeight="1100" math="0" shadow="0">
      <root>
        <mxCell id="0" />
        <mxCell id="1" parent="0" />
        <mxCell id="hsWFuyz8MnrBkq4unKrl-8" style="edgeStyle=orthogonalEdgeStyle;rounded=0;orthogonalLoop=1;jettySize=auto;html=1;exitX=0.5;exitY=1;exitDx=0;exitDy=0;fontFamily=Verdana;fontSize=13;" edge="1" parent="1" source="hsWFuyz8MnrBkq4unKrl-2" target="hsWFuyz8MnrBkq4unKrl-3">
          <mxGeometry relative="1" as="geometry" />
        </mxCell>
        <mxCell id="hsWFuyz8MnrBkq4unKrl-2" value="Start" style="ellipse;whiteSpace=wrap;html=1;aspect=fixed;fontFamily=Verdana;fontSize=13;" vertex="1" parent="1">
          <mxGeometry x="439" y="20" width="60" height="60" as="geometry" />
        </mxCell>
        <mxCell id="hsWFuyz8MnrBkq4unKrl-10" style="edgeStyle=orthogonalEdgeStyle;rounded=0;orthogonalLoop=1;jettySize=auto;html=1;exitX=0.5;exitY=1;exitDx=0;exitDy=0;entryX=0.5;entryY=0;entryDx=0;entryDy=0;fontFamily=Verdana;fontSize=13;" edge="1" parent="1" source="hsWFuyz8MnrBkq4unKrl-3" target="hsWFuyz8MnrBkq4unKrl-9">
          <mxGeometry relative="1" as="geometry" />
        </mxCell>
        <mxCell id="hsWFuyz8MnrBkq4unKrl-3" value="Input Pound value:&lt;br&gt;p = 10" style="shape=parallelogram;perimeter=parallelogramPerimeter;whiteSpace=wrap;html=1;fontFamily=Verdana;fontSize=13;" vertex="1" parent="1">
          <mxGeometry x="372" y="110" width="194" height="60" as="geometry" />
        </mxCell>
        <mxCell id="hsWFuyz8MnrBkq4unKrl-12" style="edgeStyle=orthogonalEdgeStyle;rounded=0;orthogonalLoop=1;jettySize=auto;html=1;exitX=0.5;exitY=1;exitDx=0;exitDy=0;entryX=0.5;entryY=0;entryDx=0;entryDy=0;fontFamily=Verdana;fontSize=13;" edge="1" parent="1" source="hsWFuyz8MnrBkq4unKrl-9" target="hsWFuyz8MnrBkq4unKrl-11">
          <mxGeometry relative="1" as="geometry" />
        </mxCell>
        <mxCell id="hsWFuyz8MnrBkq4unKrl-9" value="Kg = Pound*0.454&lt;br&gt;Kg = 10*0.454 = 4.54" style="rounded=0;whiteSpace=wrap;html=1;fontFamily=Verdana;fontSize=13;" vertex="1" parent="1">
          <mxGeometry x="378" y="203.5" width="182" height="60" as="geometry" />
        </mxCell>
        <mxCell id="hsWFuyz8MnrBkq4unKrl-17" style="edgeStyle=orthogonalEdgeStyle;rounded=0;orthogonalLoop=1;jettySize=auto;html=1;exitX=0.5;exitY=1;exitDx=0;exitDy=0;entryX=0.5;entryY=0;entryDx=0;entryDy=0;fontFamily=Verdana;fontSize=13;" edge="1" parent="1" source="hsWFuyz8MnrBkq4unKrl-11" target="hsWFuyz8MnrBkq4unKrl-15">
          <mxGeometry relative="1" as="geometry" />
        </mxCell>
        <mxCell id="hsWFuyz8MnrBkq4unKrl-11" value="10 pound =&lt;br style=&quot;font-size: 13px;&quot;&gt;4.54 kgr" style="shape=parallelogram;perimeter=parallelogramPerimeter;whiteSpace=wrap;html=1;fontFamily=Verdana;fontSize=13;" vertex="1" parent="1">
          <mxGeometry x="409" y="300" width="120" height="60" as="geometry" />
        </mxCell>
        <mxCell id="hsWFuyz8MnrBkq4unKrl-13" value="" style="shape=image;verticalLabelPosition=bottom;labelBackgroundColor=#ffffff;verticalAlign=top;aspect=fixed;imageAspect=0;image=data:image/png,iVBORw0KGgoAAAANSUhEUgAAARkAAAGXCAYAAACHqiS/AAAgAElEQVR4Ae2dMbLrvA2FvS7vIdvwZBFZQgrX2UD6FLdLnTbtP7dKmS47UAYkQQIgaEqUZEvW8cx7kkgCBD+SR5Rs6d4mfEAABEBgRwK3HX3DNQiAAAhMEBkMAhAAgV0JQGR2xQvnIAACEBmMARAAgV0JQGR2xQvnIAACEBmMARAAgV0JQGR2xQvnIAACEBmMARAAgV0JQGR2xQvnIAACEBmMARAAgV0JQGR2xQvnIAACEBmMARAAgV0JQGR2xQvnIAACEBmMARAAgV0JQGR2xQvnIAACEBmMARAAgV0JQGQE3v/+97/Tn/70p/Dv3//+t8g57+4ff/wx/fOf/5z+9a9/5Ub84x//mG63W2hnTsQOCOxEYEhkaODSZKSByv/+/Oc/T3/961/VYN4p5t3c/uc//8ntoYl5xA+JHzMnUZQfipnzqI/oQ33CadQ+mxYS8B8I7EhgSGTkYOYBLLckOP/73/92DHsf11uJDE1+YkBCvPWKSLJn0SAaMnaqlz9/+9vfssiwKEnh4XLYgsBeBFaLDC3DaYDTZPrLX/6SBzQN7rN95ERds5LZyo/HryUycmXJYsL2FI8UfYgMk8H2HQRWiwwNYP7QQJYrGk7nLeWTKNFEoX+0Lwc/l6NJQn6lb87jdGlH+5TOabTPdXg+2Bffr6CyXCfHT2nyQ75l7Hw5IsvQPvmhcuzn73//e7Mt1meLh6yD4mLf3Da5WiEf8sNsuCzlvRKZpTFJhrRP9dA/Fjqun7b0YYacz7HSSYr7jPuD83hrfVE9bCPbR+U4vbWSpDIcC5Vt9SfXje04gU1FhsLgCUBb+aHOlnlynzpZflqTgAYS20kbLk9bmtRchreUZj9eOTlZpf9W7HZCUx0cC9cttzKGlk8qL+uWNrRPeeyTeNDk4GNv9SjjYV9eGuUtiYlEgi4JuW5vSz65LtryPpXlNlKdchUm/dh+Y3vaev1Hvrw2WC5eGapX9ieJEMdFN8rxGSeglWCmHzvQpRkPEnlfQE4ESqcBQv+4E8lGnkl4MFG6/PRERtYtL90oXZ45ZfwUA9UnY6HyPAmofs4jnzRAaTCSjSzDcXqDn/zRhOTPUh5sR1sZO/nh2KR/Wd5j6aUtjYl9UP3MRMbCE5vLcd/wltlxPrGlNPonxUuuULgs+6D6ZFmun/JtWTm+uNyr/pRjjXzhM05Az+KZfuRA50FAyi9XAjTZ+CMnvJzssiN5UJKNHCDsg7ayPA9SW57q4o+MU56l5MCU8cg42X+rTq7D2/ZsZD2yfmknecg6ZJtkO2iiex+PpZe2NCae6LJe/mpc9oGsi9JpnMgPtdmmScHjfiAb6Yv2+SPHHQkIM6U+5zjZj2TMaexHbrGSkTTW7a8WGe5EuaWOlh/OkwOD8+VE4TQ5mDiNtq0BsrR8K56Wfy5P7aKBaSeFjPFVnFyO/c3lwXa0pfrZnic1HcuJLct7bLw09jk3Ji4vVwgcD/Upf2RdPPk5z9tSGU8cqKz0JW0lExkP9RPHKQWF0+b2p6wL+8sJbCoy1GlyBUPhtCYuh+oNHC/tla8l5V/F08qjszUPTN7adnJ7XsXZy6P8VlvYv5xQFK88i8uJxOU9fzat1e45PniissAQH8nG1sU+5ZbKy5MNM6atbFPLl2UifbMv6Wdpf0p/2F9OYLXI0FmHBmnr7C4HMA1E+/EGjpdGdtKXHDRLyksfNh6ZJ/1z3TQZeNDSlur1Pj0/7MPWT75abeF67ISSy3rya1cLnj+bJuOdG5OMg9tDW7uisnVxO3hL5dmeypJfyVn2Q8uXjIXaIj/sW/qhfCon66Fy5B+f7QmsFhnbqV6I3NF2AFJZOhNSfmuJLf0tXUbLySMHWSueln8ZA+3LiWHz6LhVL5dt1U/5Hg+2o603oWTclrE3Mb20JTHJyxC6PKGY6J83Fry6uD0kiFyvFLcWv5YvjwnXwf6pTOvT68+WHdLnEXiLyMhOlDcK5ZlEDgIacDw4qAwNajmRKE+Wbw2+1mCVS3PySx/a8gSX/rluiVPGLdN5X04eio0+coWxlAf7pW1rQkkGPTayLPteEpPkSn1FfUpp9E+2k3x7dXGd1g+ny77utYVsWkwoj8cR+5nbn1SOx4MUQI4R2/kE3iIy8tsC7nS5pQEuP3LwyXLc6ZTGg4bsWgNZ+pHlvWty8kn+WYC4PPugPKpHTkY6bn1krNwGLruUB9vRluJifxQbf6SwUT5Pdo+Nl7Y0JsmB4+Et5dEkpY9XF8dMW8mJylq/3A+vfLWYkA3HxH7m9ieXI3uKC59xAkMiI880cqC/CoMGMU9g7nja0qrA+8g6qBwNPpo4PCgpnz/y5ien0VZOPB5knC8HJvmn2Kg8Twrpn9PmxM3+Scg4VrKjfflZyoNtJRfLXraJuXpsvDTyvyQmFgPaUr30j9OovVQHfVp1cXuIuR0XtHJg5uSXPy1fr5hwn0k/7JvzaMu8uC4SSc7HSoapjG2HRGasqmhFnUeTw06Qlk8qRwNxr88S/0vi5nh7Nkt5sN89t72YaNLxBLRxsGDQRF7yoT4mVu/89PqGYiEW+Kwj8HaRWRcurI9AQK4E5AmAJi2LD69kjhAvYvgsAYjMZ/mfsvbe/Ru6NJTic8pGIujNCEBkNkN5LUe0aqHVCt+HIWGhFY6893EtImhtiwBEpkUG6SAAApsQgMhsghFOQAAEWgQgMi0ySAcBENiEAERmE4xwAgIg0CIAkWmRQToIgMAmBCAym2CEExAAgRaBLxWZ3+l5v03352+r3UjPBH6mx+02PX5ywhftYBwcoTOHRObnEf+oWzWJfx7T7faYPj9e3z+4IpP7dD5dmyMysUzV30cYwS9jeNc4iPXwr53nz4FiJ0We51fx1zph+vYvkXwgc5XI3G5mUi0Umd/nfbrdn9Pa9UbtZ/3gqn22eidOwDggDI+WyaHSry0y8/u53WlBFMQ4jiLRP9mGuh+PaiUZ7KXqNKpu2TeKfyx5XGQez3BJcpMwLigyeYD9Pqe7Fd2PdeuSiueIzBJ/RyrbP9msFhmv30Na7xKUuNNJqeY/T2Ta9kfqAYplhcj8TFMQFXH2rkSmLOd46Rc1qU4vKxqb9+qMYMve0soopt+fP1EI09/slno4TbFzOa52/eyz03XeYKtMYlyPHx23vgzReRRfiZvbJdd+cpD6/os9BaTb/fiR9lXAKaGuN0xO8bfQdR3Sj22P7U8bD7eBfNT1cvylPm1f+rFlz7HZuGQ/13mlPrZP22rM9+qNdkVIav4lz9QlDkuZ2l4UO8TuOpGhIUv3Z3ipqICnjpK9E/LLpKnPIrVNXabmVpfhQdISQMoXeWniycle+6zrVSkLREYJhzrr1e2PQs7MYr6MU0+6Oe2+TWX1yeXZv2qRODD1zmormSf/YgxorjbfxmPqDRHJSUX5r/rRsxfNogirS/YUg4hZ94FjX92H7NQb+LHYyvZE32FOCQGv7vF07HWEnz9aLTKTnCRSZBoDsSiw08GuDXWCHEg1tNZAqSdj2w/FJcvXPut6VYobuyqRJ52sh0pkJg0fOb97ZvcGt+Dn+q8HuY2axSLHHfxoXrVNmMHOJeSSeFrtaYui7kfPXkda9bPLSPSRNo8itVBkdIw9/rEN+USexkvui3SClJpoQvz44XqR4UlCqxkpMnJfNDN0aiLid3D85ipfxgRFb4sDua78dCdjCDq/+4TrKh3n+RSN8HYbg1MX9Qd9FpEuM89eDtJOfoiRz6AcmbTnNLt1/CahCexaI1yWUWfm1J/deJx67aQKzPSYKf3o2eu2VWOn2wfaPq5yLNMX9Vb+Z/APnBKzEXsT8rsPNxGZvGR/iK+wJRjRqjyhPHFo2Ahzd7caKD2RCfXos6E+u7xTZOKADJcwjfYXZt7glYO0k+/6l/Yu3uYKLJb26kx+3PpEHW6+jMfzLfKD/at+9OxF/QvGYOkDbR9X8uYk6MTFVmGsKsEVAvlSrGMdQ/Zc+Ye2G4lMmpQBHqt67OBy/c+rh9IhERiXJwKOzQwwLT/ljEZO7OAscfAlnyxf++wE4k4Ya5PaJy//wpmJY3Har/LNPTDmlW8OR3vZDtVuLp8HM8ejJ6qNmvtF++VSXp06T40Bzgpb2946njC5+Z4fx8/ttczT5C5xvootBlL3s42pHreqCRxTZtroo9wGba37J6jedFdlnXiUCzGuVfpxDjYTGYalb1JFAHw5Uv2uJk38kJ/BloFW7KQQefBEPcGPN7h0Z8TBlc4i9+f087yrezKlPeLGtlO18iPOUGLMCSuO6xl+G8Ht02VFW4I/FiB2o/P1t0Psv/XtE/mw9tFGx8B18db4DcInzsC577i83EZbbmvcyv6U8VBb43GJR+aTGOp8xb/qRxO3DCvvC/+5HSLN7YNsnHZM+eyHslP7VZq01+3J5cVYaos0+bH20vcx9odE5hihnzGKOYP+jO3aMubjT5otW3sFXxCZt/YyRKaPGyLTZ3SuEhCZt/YXRKaPGyLTZ3SuEhCZc/UXogWB0xGAyJyuyxAwCJyLAETmXP2FaEHgdAQgMqfrMgQMAuciAJE5V38hWhA4HQGIzOm6DAGDwLkIDIjMkq9hl5Q9F7j9ot36K9wlfbCk7H4Erun5e9lvLDJxgix5duSaA+pVq+eLTHiuRz4H5bp9NXi/tb9su1wwB0t81U8HC3VhOBCZhcD2Lz5HZGKZ+ByQfbbJRvhq8NrJ+Kqs9XvkY9uuI8fKsfXZh+e0ms9AsZ/jbTcWGdvAPjhrgeO+yOQnk+1TyC68JX2wpKxbGRKHCfTZX1hk0lk1PDZrQdlj6oGYJp/KLU/cpkfd5ROo6inYaMtP4pKPYpviYFul+Gyn6w628oliZSNfXxGfOC51yZE0WG92oe25bX5d2SjuDInM9/ZXoRP7uVy2z+1LPT70GwXIu+0rHleUV9fJ5Utfanv5tjvfnltk45JvBqjzSn1s/9ntypVMhFY604L2j9Wj62mSRzDGXzWJGKi9RKB0mWb8ZGErZeL9DNlZxqaq2+uo5fXqN6ml9uRRwe2T4unVm9Jmx8ivyjRtrCZGrN/25yn6S2Ey7VjASbZVrxx6fWXqDPFE3rF7Kb+MPxYgy7ocqwaFAx0PJdmY+N03M8dPXcUuKStEJr4TJc+PiMH85UYDvtHZYcKToyo/2pc6jL8XSMhn6TDHLoibfK+JeY9riEX6eFGZyOrWG86GabBV7SVHcmAKx96ua28Lctu/vL9Us7nN6b06c/rSZUl9MbevTJ0hntd92R8rqlH1a2bdmM041i4+cjQsMny5UwSA4regzbEzsYMVvTE+OIqdksWhgmj8SWTysiddMmU/VVys+C9EJgY23fnySze01Ly0XikioX06hr1E5hL9lXvFGSeBdXrRlteXMp/7PGylyLzqK6dO2dcU2+KxkhsUdqqVTHc+aftPHQ2LTJjAoZFyCWhBm+NKNGKz80omdQpPCH3Phcoaf0wtDRA5drpnCaeDShzsmLcb1isHnsvj9dmPIwpb116V0Myu3l8RmlltJ149lm6+7CtvjIj8YK8vY7pj1HRlJTJuTF+0kuFVQmh4/pMQFrR/LK97o7onoaJJYG6+as7WX2OApA7lGF1x2kxkhMjOqVeKTHVNHdtXi6umkI8agyznhx3N7NL95fAorBJ7eaYqmVmsy9it+yqcpPL4Nfm2r2aNFRWA8+dXnJirE4n28YmjdSuZFHGBGxv9cnJXqxUxSakr6dJJLVel+lv/BZmym/Ou157IhPz+e2wX16tEhuKPZztuM/91yeZYbzBqC1PN7Cv7qwyFLAh5HM7sSz4ZcV/ErbxEkn1F41asVEL9Mp/Grc5fPlZUo/RYyWKm66zfo219vP94QGT2CzJ2guxUvo41afuFAM8LCKC/tIgsQHeposcTmazQsR/cgXypLjpuY0PfXLq/IDJzRuehRKa/XJ3TJJR5H4F0T0Bd3l5p1QmRmTPWDiYyc0JGGRAAgTMRgMicqbcQKwickABE5oSdhpBB4EwEIDJn6i3ECgInJACROWGnIWQQOBMBiMyZeguxgsAJCUBkDtNp+Dr0MF2BQDYlMCYy6bmL/PPrV7+Bp3C75e3vLVq/tSjl6irjJM0x5eepNuW1ozOIzI5w4fqDBAZEhiaDfN4oTo78nEjVmH758ixNNA7HjkiEX5g+HtNDvRGviFg7hiqoAyZAZA7YKQhpAwIDIlPXGkShXlrUBVOKKm+fTqUyaeWjXbJY1ZNR+WvWevSMul1HjxjxgcAcAp8XGedpaH68QK5MipDYyWiP5zQ7XnbxE898iSXr4xg4j7ZF9KK9Li/j8P0Xe4oxlmf/L5/YVXXPaR/KgMBxCKwXGXfV8aKBprz/AKSZxMGG79PIycyrnvv0eOhXRGgBsPFE/0o4VFwpX6pCel1ATDLxBfcyLvYvLiuVmFr/XD4JWYhF2NrwcQwCJyKwUmTsZOm1vC4/R2RoFVNEQ05mFhmZz6+HkCsPG1eMo/iM+Xm11JjkOd99Q5+My/NP+Uk4XP/CPgmejc+2AscgcAYCq0QmTDrnBm2r4W55dYZnSzFJq3wxGUNxe0yJwp5dqq2fn0WkqjMaxxvPPw3/Mg7Pv8gPIsIrMw5M5FNSEppwOSVXVFwcWxA4CYFhkXEF40Wjm+W9s3qaYDS34kpHvKFOvlYgTL44OfVZ30uTwXkiENPC6xW9mMIC6ZZeeO7ZS5Ho5Lv+pX0vVpmPfRA4NoEhkWkKRmhrmqziZUazyouzdSgv7DXCejLa8v4lmPSSYuTLF8oKqxe+D5LyRUw6P72sOcfI/vgSLR57whddWv/Wvo41+krlcr2yHPZB4JgElotMWmXwtyJlayYoT4RueQIThSP7YluXWS0yfHmU7buXcCwC8W8RsZ3UlComKUghLh2z/naI/ae/+yPKlzqsfbQJ+UHwxOot84DIuEMCiYcmsFxkDt2cucF5IjDXFuVAAASWEIDILKGFsiAAAosJQGQWI4MBCIDAEgIXFZkliFAWBEBgDQGIzBp6sAUBEOgSgMh0EaEACIDAGgIQmTX0YAsCINAlAJHpIkIBEACBNQQgMmvowRYEQKBLACLTRYQCIAACawhAZNbQgy0IgECXAESmiwgFQAAE1hCAyKyhB1sQAIEuAYhMFxEKgAAIrCEAkVlDD7YgAAJdAhCZLiIUAAEQWEMAIrOGHmxBAAS6BCAyXUQoAAIgsIYARGYNPdiCAAh0CUBkuohQAARAYA0BiMwaerAFARDoEoDIdBGhAAiAwBoCEJk19GALAiDQJQCR6SJCARAAgTUEIDJr6MEWBECgSwAi00WEAiAAAmsIQGTW0IMtCIBAlwBEposIBUAABNYQgMisoQdbEACBLgGITBcRCoAACKwhAJFZQw+2IAACXQIQmS4iFAABEFhDACKzhh5sQQAEugQgMl1EKAACILCGAERmDT3YggAIdAlAZLqIUAAEQGANAYjMGnqwBQEQ6BKAyHQRoQAIgMAaAhCZNfRgCwIg0CUAkekiQgEQAIE1BCAya+jBFgRAoEsAItNFhAIgAAJrCEBk1tCDLQiAQJcARKaLCAVAAATWEIDIrKEHWxAAgS4BiEwXEQqAAAisIQCRWUMPtiAAAl0CEJkuIhQAARBYQwAis4YebEEABLoEIDJdRCgAAiCwhgBEZg092IIACHQJQGS6iFAABEBgDQGIzBp6sAUBEOgSgMh0EaEACIDAGgIQmTX0YAsCINAlAJHpIkIBEACBNQQgMmvowRYEQKBLACLTRYQCIAACawhAZNbQgy0IgECXAESmiwgFQAAE1hCAyKyhB1sQAIEuAYhMFxEKgAAIrCEAkVlDD7YgAAJdAhCZLiIUAAEQWEMAIrOGHmxBAAS6BCAyXUQoAAIgsIYARGYNPdiCAAh0CUBkuohQAARAYA2BQZH5nZ7323S73afn75rqpe3P9LiRz8f0I5OPtP/7nO4U4/05bdbsI7UPsYDADgTGRMabbL8/0yMIDwnFbbo/lk7ELUVmS1+S+h7iKv1jHwS+j8CQyPw+71FI8jKGJ3UUGBKZIDQ5fw449rFsJfPziHU91PJnzNecKOu2z7FCGRC4LoEhkYkTW1wq/TyCqJTLiN/p5/mYHh8TmR071FvF7VgdXIPA2QkMiIyzSuCJd7tNj5/W3Yrf6fmIK6C40rlP98ePuLdh/drjaZpYzMKyhS9d5OqJhc+xnWbW/3hOP897vPfiXvZ5vs8+DBA/COxHYBuRCfNfC8jjKQXEE4QkDvk6x05ee7xGZJbUL0Ur7t/Viox9saDt1znwDALfQGC5yPCqxfmG5ffnqW7+3lhAeAVyf0y80Pn9eaTVAt+DsaJij63IRPyz7sksqr+sxvj+S25HqBIi8w0DH214H4FNRYbDJrEJX/Wmr7h5suoVgRWR3vG4yIzV79c30WXX5l/fMzlsQeD7CCwXmcmKwTTRJFb3V36f+jcveSVRvtamlUy8N9NbyZTLEhYLubJYtpJZUj9E5vuGO1r0CQKbiQx/ba22fLmUhenV/Q4rXrxiqG08keGbyfH2ifXFx7WvsrriMix6LZFxyn2i51AnCJyEwIDI0Jc8cbJmDel+czNNU/ixnr05LL+JciYvrYj4B373x/Tky7BSMS2jRJln+rWw54t+LLiwfl5tmfrwq9+TjG6EeQgCQyLDly1lFXCItrwliCu3/S2AUcnXERgSGVo9XPNszpdw5T7R140INAgENiYwJjLhdgVdMl1ssl1WXDcedXB3KQLDInMpSmgsCIDAMAGIzDA6GIIACMwhAJGZQwllQAAEhglAZIbRwRAEQGAOAYjMHEooAwIgMEwAIjOMDoYgAAJzCEBk5lBCGRAAgWECQyITHiuQP7Ufrh6GIAAC307gFCITfsrvvL/m2zsH7QOBbyAAkfmGXkQbQODABDYQmfg8D73bN77MyXlC+x7fNifzy8OV0a4cE634FLX1GV7nkFY08UHFiz3WcOCBhNBAoEVgM5FRzzGFVyTwe1mK+OTbOOkZoHj8SmRi2N7lEkSm1aVIB4FjEdhMZOqVCK8yPBFJ76QJKuPl80omwvJE5lgYEQ0IgECLwI4iQ5dIVK0nIhCZVocgHQS+jcCHRCYKT3yNpidCWMl820BDe65L4G0iU9+z4cuptKrJX1EnAQp/KC52TLz/wvd4ZFrxcd0uRMtB4NgE3iYy9yf/BQP77RMB4nfycp5eyah8fLt07BGF6EDAEBgSGeOjc+hdDnVMkA0CIPA1BCAyX9OVaAgIHJPAYpFRf1fpFi9vPp12TLSICgRAgAgsFhlgAwEQAIElBCAyS2ihLAiAwGICEJnFyGAAAiCwhABEZgktlAUBEFhMACKzGBkMQAAElhD4cpHBb3SWDAaUBYE9CAyJTP36zfSL3fwuhz1CjT5f1x3jKE+EQ2T26wl4BoF5BDYRmTDx87NH8yoeLWVFRtcNkRnlCjsQ2IvAapHxHl7cK1jyK0WmXzdWMnv2BXyDwBwC60QmvAHPeRI6vflO/xLYKUcRBh/+L4e9q68sMm7dVlTsMVUY02Rsqp6XsUfbx0+6PBRPiquHOOmX0Gplx3a67lCvbL+ymaYoooWNinNO76IMCByAwLjIpEcK6oFvLlnCpG0IzACAIDLNuuMkbt+TSZNcBp0meUzqxc4iYdtD6TLN+MnCVsrkdmRhMTYbcxtADRMQ2ITAuMg8nvHF4XmSpHiqyREnppzXayKPK5lG3dVb+GLdWXSq2GIkeXVU5dvYjb8XDSGfud4qLl7B6Xfk5DjIb4hF+nhRGbJA4MAEVogMvVvTnH1DQ01aNXENDXm5YB649ISpTERTT3BrRcAch7r0xCazcFkSKjM+q9iNP9kUpx2rRCYGNt2ZiQdD1o99EDgogZUiw2dkfp8vtTJO1OY9j5Ugish4dVsRMMeVaMRgis9e7MYftyWtOqQOkM/VIsP+vZVQzsMOCBybwHqR4ZXALd1voDO6vYTakEERhOg03hzlex1WBPzj+G7hFFRYgcyN3fpLPqx4JdGByGzY8XB1WgKbiEz+xiaJi/1WhFY18iy/hpYVGV23FQF7TDXb1QoLVIzqdeyeP8fu/px+nvd1Kxl7+bWjcK/pD9iCQI/AkMi8chonqbnvESaMSXvl5EN5Z479Q8hQLQh0CewjMuas607ebmjvLxDiPGns76eFGkFgHoHNRSZfvvC3ImF7/FVMxBUvh+RN69vtLLHP63CUAoF3E9hBZN7dBNQHAiBwZAIQmSP3DmIDgS8gAJH5gk5EE0DgyAQgMkfuHcQGAl9AACLzBZ2IJoDAkQlAZI7cO4gNBL6AAERmVifGXwlv9avlWVV+vFD7180fDw0BnIrAkMiEn/ar38Fs99gA0dvb//Ie2ktk7O9y5v4mp9hJ4fO4leenZKt9e1mCf+/k2+uSOAKBVwTGRUaP7mnX55PSczyyyleN2j5vH5EJoiB+YRxFoi804ZfJj8f0MM+EBfsZkFr2mhtWMpoHjkYJbCMy/Oa3GQN8TqD1ZEln3o38z4lBl9lBZOyT21Sh88oIHQcdUSz0UGcdU82ttn5lr0tDZDQPHI0S2FRk3KW1fZpYXGa1NKOeLHbAJ9FxfdmyhEZOyJj/+NE+dCyxPD9ewO/01WUM8qXtdB8a9WLX9RQ2sk2xTMnTNvKolKntZbn6cikxYQhJEJlR3Oon2rU/HF2VwDYiEybMdgOsTITULcp/Egce7FQkTfCY5E1UOaFYXES8asJb/1x+2/tO/kOjXuxiaIaJzZdTsk2xTOAmhLd67qpjL2qiZVV4vWo8ccS6yknEHAe/gqd2hKOLExgXGTWYtx1g9WQR/hsDugiTnBzcu3JCtvJTHa5/ac8+121HRIbaaCe61FodUWynfIHYiP39+azu/cTLOtEnSZDasejIcHQtAuMiM3dEpVWGXlbHP/PRclEEw+kMteoo+fFmJr13uK8GLwEAABL4SURBVCUivBLp5KuzPfufITJL2+m2w4stxVCVnxGTFMzF9kmk0slE91WsOwuerIeRYQsCicD+IjOA+qXINAZ0sfEmqpyQnXzXv7QfaJBn4tUT0lgMtVFc+ZS/waREWytAMRR1LLcXnIJAyZVL5CFjaIVQgsHeVQmcT2S8b7LMJAiCk78aLmfkOBHE5Mm9LkUklc+zxtpno5U7tp70+yAbdz621cmY0zdTqmztX3sw9jqzWhGqyzvireqqjJEAApnACUWGYrdnUnmWrfP1t0Nx8uWlfkBhJ5z2z99EZd3J+Nbu6Hr0xE0i0ZzMNuZUXt4rexmwtbdtqTlJ8fZWRi+rs+5xfBkCQyJzGTpoqEtArWq4RHXPhzOwvToBiMzVR8BA+4PImBWWKzwDvmHyfQQgMt/Xp29okXNphnchv4H7OauAyJyz3xA1CJyGAETmNF2FQEHgnAQgMufsN0QNAqchAJE5TVchUBA4JwGIzDn7DVGDwGkIQGRO01UIFATOSQAic85+Q9QgcBoCEJnTdBUCBYFzEoDInLPfEDUInIYAROY0XYVAQeCcBCAy5+w3RA0CpyEAkTlNVyFQEDgnAYjMOfsNUYPAaQhAZE7TVQgUBM5JACJzzn5D1CBwGgIQmdN0FQIFgXMSgMics98QNQichgBE5jRdhUBB4JwEIDLn7DdEDQKnIQCROU1XIVAQOCcBiMw5+w1Rg8BpCEBkTtNVCBQEzkkAInPOfkPUIHAaAhCZ03QVAgWBcxKAyJyz3xA1CJyGAETmNF2FQEHgnAQgMufsN0QNAqchMCQyP4/bdLvpf4+f07QZgYIACLyRwLjISFX5eQTRkUlvbAOqAgEQODCBbURm+p2e99t0g8ocuKsRGgh8hsCmInN//k5TEpzHz8/0SJdURXuSGIlLrZJHAIpNuBxTmdb2MckrtN/nXV3CsWkr/TO4USsIXI/ANiITLpfuU9AYXtXc+JihOqsddZlV5/882EedF8Tj/pxI1qbf53Sv6nuRziFhCwIgsDuBcZERq5GbmuBREOKqRsTfEIJwE5mWHY384MHNo1VPEqGQf5v8Op10ERZ2QQAE9iUwLjJ8PVLF1xCZsGrRlzhkGlYk5KuRH9wnEbHfaClxk2VkbK30Km4kgAAI7EHgfSITJjtf/pSmjK9kig+91xC5dBlXrXa0MY5AAAQ2JvA+keF7NXKV4d3LEfmv7sm0OUBk2myQAwLvJ/BGkaHGmW+P+J5KbrfJF4LD31rpS6Z0+ZVuIOc8viHcSs/1YQcEQGBvAkMis3dQ8A8CIPA9BCAy39OXaAkIHJLAYpHJlyTqK2z9HNPRyxyyJxAUCHwpgcUi86Uc0CwQAIGdCEBkdgILtyAAApEARAYjAQRAYFcCEJld8cI5CIAARAZjAARAYFcCJxeZ+OM99Zu9XXFJ55+sW8aBfRA4NoEhkTnO6zc/OdE/WfexBxWiAwFJYFxk5PIh/XxfJslK9tv/5ET/ZN37EYVnENiawDYi4z38uHWkrr9PTvRP1u3CQCIIHJLApiLDr1Fov/IyPiFdfhEs3y/jPT1tJ3I8Znt+xWdZQVn/t6nkEX9tr99JvMy2X7dsW3pvTvVA6CHHBIICgU0JbCMy8pUNjffG5KeoxaxXr9B03/ciRSaJQLYvohCTbD5pivwrCnX+y1dJvLTt163bBpHZdNTC2akIjIuMenZJvIwqvYmOVzWZhis+JCJsGyeuthMi07RPqxU3n3Qm/RWFRn6Ir5H32nZObNy2TAE7IHA5AuMik1cUDrMwadNDk1xOprkCNUdk9CUIX/6EKsLKw+bPfL1nzzbEbn1bkfEeEoXIOKMDSRcjsI/IZIhCOBqrhVy0d7nk2tuJXk/q16uRVLvru7cK6tdd2oY9ELgugfeJzIxvoIIg8FvtuPyNb96m+yC8Murm8z0ZFh5rTyLSzov3c1r5yVcztnpAxZvh7K/ORwoIfCuB7UUm3TDlb4BuWTQIYZmcOf8mL0Pi6oDz6m9wbH70l3XHfnuU7/dw92l7/e2SyevYPn5s3a/bBpHhPsD2agSGROZqkNBeEACBcQIQmXF2sAQBEJhBACIzAxKKgAAIjBOAyIyzgyUIgMAMAhCZGZBQBARAYJwARGacHSxBAARmEIDIzICEIiAAAuMEIDLj7GAJAiAwgwBEZgYkFAEBEBgnAJEZZwdLEACBGQRWiUx41qj6+f2MWhcXMT/5L88RLPYEAxAAgfcSGBQZOen3fugv1iXfM1MebEyvclDPR40DtC+aGvcESxAAASYwJDL5aenGKxLY+SbbTh1bCsOWvjZpO5yAwBcQGBKZ3O6OAORyq3bSqqm6RHKees4rGrnSuk3ek+D8hDc98c1PVPPT32Gbfa0KHsYgcHkCJxAZekPEc7rz2/SM2NSrDxIfeQlnL7dYnGSZOA5qX5cfHwAAAqsJnENkuJn5XTVFIOYIA13elXs6UWTKMTvf9v5O8Yo9ELg2gXOJTOirtBJJKxpXZLIYlffuFlGByFx7yKP17yZwQpHRK45KZNKllbyqwkrm3cMK9YFAIbCDyKSVxkY3ToOISMVIr9jklUnIl6/wtDejk+hweX4FaDkuMCpfJQt7IAACgwSGRCZOxnIpwt/KRC3YVmSoXfFHf6U+LRDim6QkbCq++3P6ed5n3ZPhP7GCb5cGRxPMQMAhMCQyjh8kgQAIgIBLACLjYkEiCIDAVgQgMluRhB8QAAGXAETGxYJEEACBrQhAZLYiCT8gAAIuAYiMiwWJIAACWxGAyGxFEn5AAARcAhAZFwsSQQAEtiIAkdmKJPyAAAi4BCAyLhYkggAIbEVgTGTk+13oPS/q2aKtQit+wmMFO9dRalu2V8fWesnWMr8oDQLfQmBAZGgSlfe58PM++nmibfHUE3lb/9ZbePZp5gOeNrZwPNPW1otjEPhGAgMiU2OwE60usS5lb/82ulGRiQ9mPqYf6xDHIHBhAicUmfiUt30vb7ma8vPLSivml2Pq/XiJY33OeRo7C2B4UZZc4aVRZS8tw2tEnXIXHoRo+ncTWC8yaRKVSb49sDyRg+v0Kgl5yRYmOK8gOJ9eEJ5iUTG+EplYfvFKJr1/ONeXEUTxyoIW4oDAZDzYuQSBlSKTJnQ9uzaF54lMnrihJnmfyBOR9E6aEKeXzyuZGPZikXk8p+fd/lUEfgG6FJVY9864NmUPZyCwlsAqkQmTX76Vbm00Dft5IsMrF09E9hYZWjKZVUtoi0nDSqbRw0j+ZgLDIvMugSH460UmCk/8qt0TobUrmXRdll5gXlYq0S+/OZC2Je+bhxXaBgKFwJDIvBaYNKE3/Bp3RGRu1T2bctkS/OX4UrxCAJZ8S6RjSy8557pJdHI9BXrZ255V8Y09EDgGgeUik26iyrNz3OdJvP3E0RM5+q/vyfAqgfOf04P/IJwQkIhdrzD4r0mWVYbIfykSdpVF3nX7o2CV9xPr1Ywue4whgShAYFsCy0Vm2/p38MYi87uD72Uu3RWR+iZsmT+UBoEzEoDI7Nhr3rdUrvDsGANcg8CnCUBkdu2BdDkkLttub/g2btcmwTkILCTwhSKzkACKgwAI7EoAIrMrXjgHARCAyGAMgAAI7EoAIrMrXjgHARCAyGAMgAAI7EoAIrMrXjgHARCAyAyNAf2s05CLDY3oF9H6F9AbOocrEFhJYExk7KMFnZ/er4wxPiCpfmvCjxCs9Txqv43I6MclKJb0OEN5vuFlgCwu9AM/MqGtFhv7Ox1+585Lt+XRCPM4RojX9IOuj/2Wemc2hQ2x/UICAyJDA4ifUyIiyybGCMNqMlZPO494XWOzj8iEdi4S7DKZw/Njxtb6iyLRF5rwq+THIzz7JUWi6ocGwpZ9oziSv5zAgMjUROYOvtpyXkrtP00uOQPmudqo1PYiEybm4l8DvxAZ7901aQX6Ghu1jU4idRvrfvBwtu290kj7fgLrRWbWwF0Hsh7ccXKVpbqZbGqZb8tSLHICxXz7fl89EWN5fvJcPbWdVlWcJ7faR80gtyv4kKvDVNZeloZLlVKO7IkBCRTVRdvMxH0Q02Oh48oxKUaxTMnTNvKolJGMZQnsX43AmMiYwd+bTGuhloGbPKlJmQRGBpEmfkzyJpacAMme3wFDVagJav1z+fX3hUK70j0OGX5sZYwxi0ZgXgRGMiU/uVzK8FdGHgvhKdTBl1OSUYrooV9ZUT2H1bEXNWH3QgTGREYBioPx9cuZlMHiAzkZ40pBTLbG5CvC5E0sOYFa+akO17+0X9ycbBBj3Of9wCMio8Wq18YktuI+0DL7jAE7X05gA5HhM7+Y+BtDK4LhOFarjpIfJllYHrREhFcinXx1dmb/YgKmVZO8TOL9enXC9nFb2hX96dWISXPFTvtTRy4Xr63Jqiov2qgciwMZ04i9cIXd7yWwjcjIwbYDqzIZHeeNuouNN7HkBOrku/6lvRPTzKQSIws1Cx85iHWwYNG2J1qqWi/ukOb7iSsfezmUjlsVizqG7FXAOPhWAstFhgaWWCLb103Wx+vRqclYuYsiof4edzirlpVVsM8xp/J50nZEhl+nmSeata8Cmp1g2xUnaoqb2pBjnu1SFKy5uByadRghbfV75iKqDrvG3mbj+DIElotMOOmaM54aqGlwq7R1PO1krL3Zs34RmFhW56tvh5KIeJcqZf5Y+9jGkl9HNCelbpdm560OltWp49aipeuq4422pb5UXv4Yr2TW5s63U04hJF2AwJDIXIDLx5sYBYa/6UnhVPc9Ph4mAgCBLgGITBfRZwoEkTGrQVd4PhMeagWB2QQgMrNRvbugc3my+BfB744Z9YFATQAiUzNBCgiAwIYEIDIbwoQrEACBmgBEpmaCFBAAgQ0JQGQ2hAlXIAACNQGITM0EKSAAAhsSgMhsCPMzruyP5j4TBWoFgRaBlSJTvmZ9+ePPVu0z08MvY+UvTfMjAa8cxMmnf8n7qvxZ8yAyZ+25q8S9SmTCj8Oc1zRuDa/6+X345av/oF+pe7nIeD+AK/6OugeROWrPIK5IYIXI0OCmZ4T2H+SVyFQPLW7TnRCZbTjCCwhIAsMiUyb+50QmXgrFSzZ+6LG8EiGml8slLlcu8WxZ+VoF/TAhI/N9lDqonPZf6ih5urzk5/vXl6KxPMfK7dZlOF5sQeDzBMZEJrxHhB/ek5NknwYVQUv+1asceFLbJ69jepnQTjnzwGF/JcM+xKVaYMHHKV/OeHVpZ2Oi9kh+7F+0RcVo/XN5rn8f/vAKAmsIDIkMTfoyeeUkWRNK2zaIjLrxKyah+6oG8mUntD2mMhR78TVXZErbY8xZBIPgFH/copxfxcQxsEh0YnT978+f24EtCIwQWC4y6sxKVe4/yMsk9ZroTUwqZ9PtcR37apGp2MR4g9+wuunF0MlXK0hmsT9/rglbEBghsFhkwoRRqwrxAit5mTASTcPm2CIThSG8mc9dadAfP7hN8c19HRGphJGACBFx/Yv8Bj8kg8AnCSwWmTpYO8jTpDPvQqnt5qeUSerZeBOXytl0e0xldOxRQPleU7uum7jEin8+hS+RUtul2IbVDecnwclsUvn8u59ejNa/b+/ftPbagzQQ2J8ARCZPcIIdRSd8c5OFQHYCi8Az/AnX8g2PLCN8hBVfEZhYSufrb4fY/69wqIVQxRhijzZR15LouLELl9gFgTcS2EBk3hjtx6vyRODjQSEAEDg0AYjMou6ByCzChcIgME0TRGbRMIDILMKFwiAAkcEYAAEQ2JsAVjJ7E4Z/ELg4AYjMxQcAmg8CexOAyOxNGP5B4OIEIDIXHwBoPgjsTQAiszdh+AeBixO4qMjYX9FefBSg+SCwI4EhkQnPEpmHJO3rD7aM2avvtupPtkJktuwf+AKBVwTGRUY+BPiqhg3yXj8gOVIBRGaEGmxAYIQARGaEGmxAAARmE/gCkYk/9X/8xO2cJ6P1k8+zWaEgCIDAAIFxkVH3ZF69g2UgKmPi3ZMpV2ssLuKVCuoNdSk/G3B5fuWlqQyHIAACmxIYEhkdQZq0O77D5PU9mVi/vvFM91yS6OBtcrq7cAQCbyawgcjQS+ie050n9Q4NGBOZtFIJsdmVFm787tBNcAkCLoGLiIy4lAoYIDLuaEAiCOxAYLnI0MpAXRo17nmoMusiX7WSSe/6jS/ypjhwT2Zdb8AaBJYRWC4yYpLyNzllAlPl29+j8W78lh/jte7JyBu7ceXC8fI3Ufle8DJmKA0CILCAwIDILPCOoiAAApcnAJG5/BAAABDYlwBEZl++8A4ClycAkbn8EAAAENiXAERmX77wDgKXJwCRufwQAAAQ2JcARGZfvvAOApcnAJG5/BAAABDYlwBEZl++8A4ClycAkbn8EAAAENiXAERmX77wDgKXJwCRufwQAAAQ2JcARGZfvvAOApcnAJG5/BAAABDYlwBEZl++8A4ClycAkbn8EAAAENiXAERmX77wDgKXJwCRufwQAAAQ2JfA/wEEGpg+J6+FdgAAAABJRU5ErkJggg==;" vertex="1" parent="1">
          <mxGeometry x="20" y="30" width="281" height="407" as="geometry" />
        </mxCell>
        <mxCell id="hsWFuyz8MnrBkq4unKrl-15" value="End" style="ellipse;whiteSpace=wrap;html=1;aspect=fixed;fontFamily=Verdana;fontSize=13;" vertex="1" parent="1">
          <mxGeometry x="439" y="395" width="60" height="60" as="geometry" />
        </mxCell>
      </root>
    </mxGraphModel>
  </diagram>
</mxfile>
